<?xml version="1.0" standalone="no"?>
<!DOCTYPE svg PUBLIC "-//W3C//DTD SVG 20010904//EN"
 "http://www.w3.org/TR/2001/REC-SVG-20010904/DTD/svg10.dtd">
<svg version="1.0" xmlns="http://www.w3.org/2000/svg"
 width="362.000000pt" height="362.000000pt" viewBox="0 0 362.000000 362.000000"
 preserveAspectRatio="xMidYMid meet">
<metadata>
Created by potrace 1.11, written by Peter Selinger 2001-2013
</metadata>
<g transform="translate(0.000000,362.000000) scale(0.100000,-0.100000)"
fill="#000000" stroke="none">
<path d="M1738 3513 c34 -2 90 -2 125 0 34 2 6 3 -63 3 -69 0 -97 -1 -62 -3z"/>
<path d="M1593 3503 c9 -2 23 -2 30 0 6 3 -1 5 -18 5 -16 0 -22 -2 -12 -5z"/>
<path d="M1518 3493 c6 -2 18 -2 25 0 6 3 1 5 -13 5 -14 0 -19 -2 -12 -5z"/>
<path d="M1596 3484 c-206 -28 -370 -76 -526 -154 -191 -96 -347 -210 -470
-344 -89 -97 -117 -132 -78 -98 l26 24 13 -24 c7 -12 12 -24 11 -25 -7 -10 1
-24 19 -34 15 -7 19 -8 15 0 -5 7 -1 9 8 5 9 -3 16 -12 16 -19 0 -30 20 -22
70 28 l53 52 -55 -65 c-30 -36 -71 -86 -90 -111 l-35 -46 -74 43 c-41 24 -77
44 -81 44 -13 0 -122 -194 -168 -299 -24 -55 -47 -98 -51 -95 -4 2 -5 -6 -2
-18 4 -19 3 -20 -7 -8 -10 12 -11 11 -7 -7 3 -13 2 -23 -2 -23 -10 0 -37 -99
-58 -212 -21 -114 -24 -426 -5 -538 58 -348 206 -653 440 -903 105 -112 169
-167 288 -247 178 -121 360 -202 554 -250 575 -140 1184 27 1599 440 316 313
488 701 508 1145 8 177 -27 476 -58 495 -5 4 -7 15 -3 25 5 13 4 16 -5 10 -10
-6 -11 -2 -6 15 5 14 3 20 -3 16 -6 -3 -17 14 -27 41 -9 27 -24 64 -35 83 -18
33 -19 34 -20 10 0 -21 -5 -26 -27 -25 -14 0 -28 6 -31 13 -2 6 -8 10 -13 6
-9 -5 -13 10 -9 31 1 5 -2 7 -6 3 -4 -4 -13 0 -20 10 -12 14 -12 12 -3 -16 16
-46 5 -50 -30 -11 -17 18 -29 35 -26 37 10 11 110 72 117 72 4 0 8 5 8 11 0
15 -103 189 -112 189 -4 0 -43 -20 -87 -44 l-80 -44 -24 37 c-13 20 -54 68
-91 107 -36 40 -66 75 -66 79 0 4 25 37 55 73 l56 65 -23 24 c-29 31 -148 127
-151 122 -2 -2 -27 -33 -57 -69 -30 -36 -55 -67 -57 -69 -1 -2 -30 14 -65 36
-35 22 -91 55 -125 73 -35 17 -63 33 -63 35 0 10 54 142 62 153 15 18 -81 58
-237 97 -247 63 -442 78 -649 49z m654 -81 c0 -1 -12 -33 -26 -71 l-25 -70
-42 11 c-54 13 -67 24 -23 19 35 -4 59 14 31 24 -12 5 -13 9 -4 20 6 8 19 14
28 14 14 0 14 2 1 10 -14 9 -7 15 14 11 5 -1 6 5 3 13 -3 8 -4 16 -2 18 4 4
45 5 45 1z m113 -318 c115 -14 131 -19 208 -65 100 -61 202 -144 279 -227 62
-68 178 -231 142 -199 -12 10 -41 20 -67 22 -42 4 -45 3 -45 -21 0 -14 -6 -25
-12 -26 -7 0 -5 -4 6 -8 17 -7 17 -8 2 -23 -9 -9 -16 -22 -16 -28 0 -6 -4 -9
-8 -6 -4 2 -7 -7 -7 -22 1 -28 -20 -82 -33 -82 -4 0 -12 -11 -18 -25 -9 -18
-9 -25 0 -29 6 -3 3 -4 -7 -3 -11 1 -35 17 -54 35 -33 30 -93 68 -93 58 0 -3
4 -16 10 -31 7 -17 7 -24 0 -20 -15 9 -12 -1 21 -77 l31 -71 -12 -166 c-6 -91
-10 -193 -8 -225 l3 -60 63 -14 c35 -7 62 -15 60 -18 -2 -2 -46 6 -98 16 -52
11 -100 20 -106 20 -8 0 -11 -45 -9 -157 4 -193 3 -185 13 -179 5 3 8 -27 8
-67 -1 -55 2 -74 14 -80 8 -4 -3 -4 -25 -1 -449 68 -668 82 -991 66 -244 -13
-456 -37 -619 -71 -119 -25 -144 -30 -127 -24 6 3 12 9 12 14 0 6 6 9 13 8 29
-4 48 2 42 12 -4 6 -13 8 -19 6 -7 -3 -18 -2 -25 2 -15 10 -33 71 -20 71 5 0
9 -12 9 -27 0 -14 3 -23 7 -20 3 4 12 2 19 -3 7 -7 6 2 -4 25 -9 19 -20 35
-24 35 -4 0 -8 8 -9 18 0 11 -5 6 -14 -13 -18 -40 -20 -32 -39 163 -9 89 -19
169 -22 177 -5 13 10 19 96 39 l25 5 -8 143 c-4 79 -11 168 -16 198 -8 53 -9
52 -10 -37 0 -53 -5 -93 -11 -93 -5 0 -7 7 -4 15 4 8 3 15 0 15 -8 0 -50 -93
-59 -131 -4 -14 -14 -43 -24 -65 -9 -21 -17 -43 -18 -49 0 -5 -7 -9 -14 -7 -8
2 -11 -3 -8 -12 4 -9 3 -15 -1 -15 -20 3 -33 -2 -27 -11 7 -12 -2 -12 -30 0
-18 8 -18 9 -2 9 10 1 16 5 13 10 -3 4 -17 7 -31 6 -14 -2 -23 1 -19 6 3 5 11
6 17 3 7 -4 8 -3 4 2 -5 5 -13 10 -18 10 -5 1 -14 2 -20 3 -5 0 -7 6 -3 13 5
8 2 9 -11 4 -15 -5 -16 -4 -6 8 10 12 8 16 -9 21 -11 3 -18 10 -16 14 3 4 -12
8 -32 9 -20 2 -43 8 -51 15 -8 7 -24 12 -35 12 -12 0 -21 6 -21 13 0 7 -6 16
-13 21 -11 7 -10 26 3 107 41 239 148 470 312 674 56 70 116 131 99 102 -5 -9
1 -12 24 -10 17 1 34 6 36 10 3 5 9 6 14 3 9 -5 75 8 110 22 8 3 20 7 25 9 6
1 25 7 43 13 17 5 32 8 32 5 0 -2 16 5 35 16 19 11 42 17 50 14 10 -4 15 0 15
12 0 13 3 15 11 7 12 -12 39 -6 50 9 5 8 32 15 77 20 6 1 12 5 12 10 0 4 8 8
18 8 9 0 22 8 29 19 8 13 19 17 40 13 15 -3 31 -10 35 -16 5 -7 8 -4 8 7 0 12
8 17 31 17 17 0 40 5 52 12 23 12 37 14 146 22 35 3 65 7 68 10 3 3 15 1 28
-4 15 -6 29 -4 43 6 14 9 31 12 48 8 21 -6 25 -4 19 7 -7 12 -6 12 7 1 11 -9
18 -10 23 -2 3 6 11 8 16 4 5 -3 15 -1 22 4 12 10 99 9 165 -2 27 -4 34 -1 41
16 8 21 8 21 15 -5 3 -16 11 -25 16 -22 6 4 8 10 5 15 -7 11 31 23 45 15 5 -3
10 1 10 10 0 9 5 13 10 10 6 -4 25 -8 43 -10z m-1978 -572 c36 -21 65 -40 65
-44 0 -3 -13 -35 -29 -70 -24 -51 -29 -57 -26 -32 2 18 0 32 -3 32 -21 -3 -32
3 -32 16 0 8 -6 15 -13 15 -7 0 -19 9 -27 20 -11 15 -16 16 -23 7 -5 -7 -6 1
-3 22 3 18 6 42 6 52 0 27 12 24 85 -18z m2879 -119 c3 -8 2 -12 -4 -9 -6 3
-10 10 -10 16 0 14 7 11 14 -7z m-2589 -984 c-3 -5 -11 -10 -16 -10 -6 0 -7 5
-4 10 3 6 11 10 16 10 6 0 7 -4 4 -10z m-10 -61 c-3 -23 -8 -46 -12 -52 -39
-63 56 -163 130 -139 27 9 160 5 247 -6 123 -16 346 -87 439 -139 65 -36 211
-140 211 -150 0 -3 -8 1 -17 8 -10 7 -3 -3 15 -22 17 -19 32 -40 32 -46 0 -6
5 -13 11 -15 6 -2 11 -20 11 -41 0 -20 4 -40 9 -43 12 -7 9 -94 -3 -94 -17 0
-7 -60 14 -80 12 -11 19 -23 15 -26 -3 -4 1 -13 9 -21 8 -8 11 -19 8 -24 -3
-6 3 -18 15 -28 11 -10 18 -21 14 -25 -3 -3 11 -6 33 -7 l39 -1 -35 -8 c-44
-11 -250 4 -350 25 -362 75 -706 309 -893 607 -30 48 -72 129 -95 180 -41 96
-61 155 -44 129 8 -11 12 -10 21 5 8 15 10 16 11 4 0 -9 -5 -21 -12 -28 -7 -7
-9 -12 -5 -12 10 0 52 44 50 51 -4 12 56 31 81 27 14 -3 31 -1 38 3 7 5 14 9
16 9 1 0 0 -18 -3 -41z m182 -21 c-3 -8 -6 -5 -6 6 -1 11 2 17 5 13 3 -3 4
-12 1 -19z m-380 -140 c-6 -4 -15 -8 -18 -8 -7 0 -26 61 -33 106 -9 56 7 46
36 -23 21 -51 25 -69 15 -75z m2156 72 c-13 -10 -80 -37 -150 -60 -141 -45
-301 -118 -402 -182 -54 -34 -130 -92 -251 -194 -14 -11 -29 -2 -105 62 -173
145 -315 223 -549 303 -134 45 -204 76 -194 86 2 2 48 -10 103 -26 293 -86
465 -173 644 -329 l83 -72 47 44 c103 99 189 157 347 236 87 44 245 101 334
122 30 7 66 18 80 25 33 17 41 8 13 -15z m-963 -54 c14 -2 36 -7 50 -11 14 -4
40 -6 58 -6 17 0 32 -4 32 -9 0 -6 6 -10 13 -10 18 0 51 -29 65 -57 9 -16 8
-31 -2 -65 -8 -23 -20 -68 -26 -98 -20 -89 -28 -90 -134 -6 -114 91 -151 115
-301 192 -76 40 -111 62 -95 62 42 -1 215 14 220 19 5 4 76 -2 120 -11z
m-1005 -286 c44 -56 94 -121 111 -143 36 -50 163 -159 175 -151 5 3 28 -8 51
-24 24 -16 75 -46 113 -67 39 -21 77 -46 85 -57 19 -23 204 -90 216 -78 6 6
32 4 64 -5 30 -8 91 -20 135 -28 60 -10 81 -18 83 -30 5 -24 -46 -22 -223 8
-31 5 -37 4 -25 -5 12 -10 11 -11 -9 -6 l-23 5 21 -20 c11 -11 21 -22 21 -24
0 -10 -47 -50 -58 -50 -7 0 -12 -4 -13 -10 0 -5 -7 -14 -16 -19 -13 -7 -13
-10 -2 -17 11 -7 10 -9 -3 -9 -24 0 -23 5 12 100 l30 81 -28 10 c-61 24 -168
60 -181 62 -8 1 -24 -29 -44 -81 -24 -68 -33 -83 -48 -79 -26 7 -229 124 -263
152 l-29 24 57 71 c32 39 56 72 54 74 -10 6 -98 78 -128 105 -19 17 -37 31
-40 31 -3 0 -23 -18 -44 -40 -24 -25 -47 -40 -62 -40 -13 0 -27 0 -31 0 -5 0
-8 5 -8 12 0 6 -7 13 -15 15 -9 3 -11 1 -5 -4 6 -4 11 -15 13 -23 2 -8 9 -21
14 -28 9 -10 13 -10 19 0 4 7 11 10 14 7 3 -4 -1 -11 -9 -18 -11 -9 -24 0 -65
45 -83 90 -143 173 -135 186 4 7 3 8 -4 4 -6 -3 -16 2 -21 13 -9 15 -7 20 9
24 12 3 17 1 14 -5 -9 -14 28 -38 49 -32 20 6 60 -23 51 -37 -3 -5 1 -9 10 -9
8 0 17 -6 20 -12 3 -7 3 -2 0 11 -5 18 -3 22 7 16 12 -7 12 -5 1 6 -7 8 -17
15 -22 15 -23 3 -24 5 -13 12 9 6 6 17 -13 45 l-25 37 30 18 c35 20 34 30 -11
129 -39 88 -35 90 15 6 24 -39 79 -118 122 -173z m2329 -7 c-66 -89 -128 -152
-136 -140 -8 14 60 89 74 81 4 -3 9 0 9 5 1 6 2 17 3 24 1 6 7 11 13 10 7 -2
21 11 33 27 12 17 24 30 27 30 3 0 -7 -17 -23 -37z m-314 -302 c0 -11 -118
-95 -177 -126 -29 -14 -58 -23 -64 -19 -8 4 4 16 32 31 57 30 71 39 138 90 51
37 71 44 71 24z m-733 -217 c-3 -3 -12 -4 -19 -1 -8 3 -5 6 6 6 11 1 17 -2 13
-5z m217 -34 c-77 -22 -222 -45 -230 -37 -4 3 -4 13 -1 21 5 11 24 15 80 15
41 0 85 2 98 5 13 3 37 8 53 10 16 3 31 7 34 10 2 3 10 3 15 -1 6 -4 -16 -14
-49 -23z"/>
<path d="M1690 2846 c-100 -20 -191 -58 -264 -110 -36 -26 -66 -49 -66 -51 0
-6 32 6 50 19 8 6 6 0 -5 -13 l-20 -24 20 11 c34 19 73 55 52 48 -11 -3 -16
-2 -12 5 4 5 15 7 26 4 13 -4 19 -2 19 9 0 9 13 22 30 31 43 22 51 18 10 -6
-41 -23 -24 -20 80 17 54 19 104 28 180 33 94 5 100 6 55 13 -37 5 -28 6 35 3
56 -1 75 0 57 6 -55 15 -182 18 -247 5z"/>
<path d="M2000 2815 c46 -18 64 -17 25 0 -16 8 -37 14 -45 14 -8 0 1 -7 20
-14z"/>
<path d="M1930 2773 c0 -11 46 -34 98 -51 27 -9 31 -8 23 2 -6 7 -8 15 -6 18
3 3 -14 10 -38 17 -25 6 -52 13 -61 17 -9 3 -16 2 -16 -3z"/>
<path d="M2040 2776 c0 -2 7 -7 16 -10 8 -3 12 -2 9 4 -6 10 -25 14 -25 6z"/>
<path d="M1675 2740 c-22 -5 -67 -18 -100 -30 -33 -12 -65 -22 -70 -23 -6 0
-9 -19 -8 -41 1 -23 -1 -30 -3 -16 -9 48 -12 50 -42 24 -27 -24 -28 -27 -18
-68 6 -24 18 -51 26 -61 14 -17 13 -18 -11 -12 -19 5 -33 1 -50 -14 -13 -12
-36 -27 -50 -35 -15 -7 -36 -26 -48 -41 -11 -16 -21 -22 -21 -14 0 11 -5 10
-20 -4 -20 -18 -20 -18 -13 31 6 43 5 47 -9 34 -8 -9 -17 -22 -19 -29 -4 -11
-27 -13 -101 -12 l-97 2 -19 -38 c-11 -21 -30 -67 -42 -103 -22 -63 -23 -70
-12 -195 7 -71 13 -167 13 -213 2 -79 3 -83 23 -79 12 3 51 11 89 18 66 12 67
13 66 43 -1 29 -1 29 -8 7 -4 -14 -11 -26 -17 -28 -8 -3 -10 22 -8 74 2 43 8
79 13 81 5 2 7 31 4 65 -4 47 0 72 14 102 l18 40 3 -47 c2 -29 8 -48 18 -52 8
-3 14 1 14 9 0 19 9 19 31 -1 16 -14 16 -11 -2 46 -10 34 -22 66 -25 71 -6 10
37 29 67 29 11 0 17 -4 14 -10 -3 -5 -17 -10 -30 -10 -33 0 -35 -9 -14 -58 14
-32 24 -42 37 -40 11 2 26 -3 35 -11 15 -12 17 -11 17 12 0 14 -10 43 -21 64
l-21 38 41 -44 c42 -46 53 -48 25 -7 -15 23 -14 24 13 30 44 9 217 11 231 2 7
-4 12 -2 12 8 0 23 59 66 91 66 53 0 98 -37 99 -80 0 -49 -68 -120 -116 -120
-30 0 -74 44 -74 75 0 14 -5 25 -10 25 -6 0 -9 -21 -8 -52 l3 -51 -55 -13
c-30 -7 -59 -10 -64 -7 -9 6 15 -38 39 -71 13 -18 18 -17 132 24 151 53 143
51 143 42 0 -5 -36 -23 -80 -41 -44 -19 -80 -36 -80 -38 0 -3 7 -3 14 0 15 6
71 -17 80 -32 3 -4 17 -6 33 -5 68 4 65 2 58 34 -5 23 -3 30 9 30 19 0 35 -27
29 -50 -3 -12 13 -24 65 -48 55 -26 82 -32 133 -32 l64 0 -35 28 c-19 15 -51
42 -70 61 l-35 34 35 -25 c19 -13 52 -37 72 -52 20 -15 42 -25 47 -21 7 3 8 0
5 -9 -4 -11 0 -16 11 -16 9 0 14 -4 11 -9 -5 -8 61 -21 107 -21 18 0 18 2 -6
33 l-26 34 37 36 c30 30 33 37 18 37 -18 0 -18 1 -2 19 9 10 18 28 19 40 1 11
5 21 9 21 4 0 5 6 3 13 -3 7 3 29 14 50 16 31 18 51 14 112 -7 83 -31 125 -73
125 -34 1 -93 -11 -105 -20 -18 -14 -63 1 -89 31 -33 36 -48 138 -25 165 13
16 11 17 -14 10 -19 -4 -26 -3 -22 4 8 13 -25 13 -45 0 -8 -5 -15 -15 -15 -22
0 -21 -85 -56 -133 -55 -23 1 -46 -3 -50 -9 -4 -6 -19 -14 -33 -17 -21 -6 -30
-2 -43 18 -10 16 -26 25 -41 25 -22 0 -25 3 -19 24 5 22 1 26 -33 35 -62 18
-102 14 -124 -11 -10 -13 -18 -18 -19 -12 0 6 11 20 24 33 19 18 30 21 67 16
35 -5 41 -4 29 5 -12 9 -7 11 23 6 24 -3 35 -1 31 5 -3 6 2 17 12 25 18 13 18
14 -5 20 -21 6 -18 9 25 26 27 11 59 20 71 20 19 0 20 3 11 24 -6 13 -14 24
-17 23 -3 -1 -24 -5 -46 -9z m-195 -117 c0 -20 -3 -24 -11 -16 -7 7 -9 19 -6
27 10 24 17 19 17 -11z m-133 -252 c-43 -81 -59 -100 -34 -39 16 37 65 118 71
118 3 0 -14 -36 -37 -79z m663 -34 c0 -17 -10 -29 -35 -42 -31 -17 -34 -23
-37 -70 -3 -46 -5 -50 -28 -50 -20 0 -26 6 -30 30 -5 27 -7 25 -12 -18 -12
-97 -48 -85 -48 14 0 41 -4 58 -15 63 -18 6 -19 39 -3 69 11 21 11 21 19 2 6
-17 8 -17 8 -2 1 9 6 17 11 17 6 0 11 -28 12 -62 l2 -63 3 63 c2 34 7 62 10
62 3 0 21 -9 39 -21 27 -16 33 -17 28 -5 -6 16 8 21 49 17 9 -1 17 3 17 8 0 6
2 11 5 11 3 0 5 -11 5 -23z m130 -137 c13 -24 13 -53 -1 -84 -14 -30 -32 -38
-64 -30 -35 9 -44 44 -29 112 9 45 70 46 94 2z m-280 -115 c7 -8 8 -15 2 -15
-5 0 -15 7 -22 15 -7 8 -8 15 -2 15 5 0 15 -7 22 -15z"/>
<path d="M1775 2734 c29 -11 58 -13 107 -8 37 4 66 10 63 14 -2 3 -50 7 -107
8 -102 1 -103 1 -63 -14z"/>
<path d="M2192 2650 c0 -14 2 -19 5 -12 2 6 2 18 0 25 -3 6 -5 1 -5 -13z"/>
<path d="M1374 2649 c-3 -6 -1 -16 5 -22 8 -8 11 -5 11 11 0 24 -5 28 -16 11z"/>
<path d="M1931 2631 c-9 -6 -11 -18 -7 -35 6 -26 7 -26 34 -10 35 20 40 54 9
54 -12 0 -28 -4 -36 -9z"/>
<path d="M1598 2583 c7 -3 16 -2 19 1 4 3 -2 6 -13 5 -11 0 -14 -3 -6 -6z"/>
<path d="M2175 2580 c3 -5 8 -10 11 -10 2 0 4 5 4 10 0 6 -5 10 -11 10 -5 0
-7 -4 -4 -10z"/>
<path d="M1802 2553 c3 -36 16 -45 39 -25 19 16 19 17 -3 34 -32 24 -38 22
-36 -9z"/>
<path d="M1845 2510 c-3 -6 1 -7 9 -4 18 7 21 14 7 14 -6 0 -13 -4 -16 -10z"/>
<path d="M2418 2418 c17 -21 42 -132 42 -184 0 -103 -36 -259 -80 -343 -11
-23 -19 -41 -17 -41 7 0 233 -41 253 -46 20 -5 22 -1 28 88 3 51 11 146 18
211 13 126 11 137 -44 268 l-19 46 -61 7 c-98 10 -132 8 -120 -6z"/>
<path d="M2336 2372 c-3 -6 -1 -14 5 -17 15 -10 25 3 12 16 -7 7 -13 7 -17 1z"/>
<path d="M1121 1974 c0 -11 3 -14 6 -6 3 7 2 16 -1 19 -3 4 -6 -2 -5 -13z"/>
<path d="M1208 1953 c6 -31 32 -76 39 -69 7 7 -28 96 -37 96 -4 0 -5 -12 -2
-27z"/>
<path d="M2342 1882 l-23 -37 26 28 c14 15 25 32 25 38 0 14 -3 11 -28 -29z"/>
<path d="M1520 1811 c-128 -10 -140 -29 -129 -201 4 -58 7 -124 8 -147 l1 -43
45 0 45 0 0 80 0 80 50 0 50 0 0 41 0 42 -56 -7 -55 -6 3 37 3 38 68 9 67 8 0
39 c0 25 -4 38 -12 37 -7 -1 -47 -4 -88 -7z"/>
<path d="M1670 1659 c0 -91 4 -169 10 -180 15 -27 63 -49 107 -49 54 0 111 18
122 38 4 9 11 92 15 185 l6 167 -50 0 -50 0 0 -149 c0 -123 -3 -151 -16 -162
-11 -9 -20 -10 -32 -2 -15 9 -17 31 -17 162 l0 151 -47 0 -48 0 0 -161z"/>
<path d="M1982 1774 c3 -36 5 -39 37 -42 l33 -3 -6 -117 c-4 -64 -10 -132 -13
-149 -5 -31 -3 -33 23 -33 16 0 38 -3 50 -6 20 -5 21 -1 28 83 4 48 9 116 13
151 l6 62 37 0 c36 0 38 2 42 36 2 19 1 37 -3 40 -4 2 -62 7 -129 11 l-121 6
3 -39z"/>
<path d="M500 821 c0 -5 5 -13 10 -16 6 -3 10 -2 10 4 0 5 -4 13 -10 16 -5 3
-10 2 -10 -4z"/>
<path d="M647 703 c-10 -16 11 -39 23 -27 8 8 7 14 -4 23 -8 7 -17 8 -19 4z"/>
<path d="M2879 813 l-34 -38 38 34 c20 19 37 36 37 38 0 8 -8 0 -41 -34z"/>
<path d="M1468 3483 c7 -3 16 -2 19 1 4 3 -2 6 -13 5 -11 0 -14 -3 -6 -6z"/>
<path d="M1418 3473 c7 -3 16 -2 19 1 4 3 -2 6 -13 5 -11 0 -14 -3 -6 -6z"/>
<path d="M1285 3440 c-13 -5 -14 -9 -5 -9 8 0 24 4 35 9 13 5 14 9 5 9 -8 0
-24 -4 -35 -9z"/>
<path d="M1200 3410 c-8 -5 -10 -10 -5 -10 6 0 17 5 25 10 8 5 11 10 5 10 -5
0 -17 -5 -25 -10z"/>
<path d="M1150 3390 c-8 -5 -10 -10 -5 -10 6 0 17 5 25 10 8 5 11 10 5 10 -5
0 -17 -5 -25 -10z"/>
<path d="M974 3304 c-18 -14 -18 -15 4 -4 12 6 22 13 22 15 0 8 -5 6 -26 -11z"/>
<path d="M749 3153 c-13 -16 -12 -17 4 -4 9 7 17 15 17 17 0 8 -8 3 -21 -13z"/>
<path d="M704 3118 l-19 -23 23 19 c12 11 22 21 22 23 0 8 -8 2 -26 -19z"/>
<path d="M2895 3120 c10 -11 20 -20 23 -20 3 0 -3 9 -13 20 -10 11 -20 20 -23
20 -3 0 3 -9 13 -20z"/>
<path d="M624 3048 l-29 -33 33 29 c30 28 37 36 29 36 -2 0 -16 -15 -33 -32z"/>
<path d="M2965 3060 c10 -11 20 -20 23 -20 3 0 -3 9 -13 20 -10 11 -20 20 -23
20 -3 0 3 -9 13 -20z"/>
<path d="M564 2988 l-19 -23 23 19 c21 18 27 26 19 26 -2 0 -12 -10 -23 -22z"/>
<path d="M479 2843 c-13 -16 -12 -17 4 -4 16 13 21 21 13 21 -2 0 -10 -8 -17
-17z"/>
</g>
</svg>
